<svg width="251" height="103" viewBox="0 0 251 103" fill="none" xmlns="http://www.w3.org/2000/svg">
<path d="M51.4973 58.007C51.6834 58.007 51.8342 57.8554 51.8342 57.6684C51.8342 57.4813 51.6834 57.3297 51.4973 57.3297C51.3113 57.3297 51.1604 57.4813 51.1604 57.6684C51.1604 57.8554 51.3113 58.007 51.4973 58.007Z" stroke="#60A5FA" stroke-width="0.25" stroke-miterlimit="10"/>
<path d="M56.5508 62.6031C56.5508 68.9892 51.4011 74.1174 45.0963 74.1174C38.7433 74.1174 33.6417 68.9408 33.6417 62.6031C33.6417 58.3457 35.9519 54.5721 39.4171 52.5885C38.5508 51.4274 38.0214 49.9761 38.0214 48.3795C38.0214 44.5092 41.1497 41.3645 45 41.3645C48.8503 41.3645 51.9786 44.5092 51.9786 48.3795C51.9786 49.9277 51.4973 51.3791 50.631 52.4918C54.1444 54.5237 56.5508 58.2973 56.5508 62.6031Z" stroke="#60A5FA" stroke-width="2" stroke-miterlimit="10"/>
<path d="M50.9679 52.0564H62.1818L72.7219 62.5548V75.2786" stroke="#60A5FA" stroke-width="2" stroke-miterlimit="10"/>
<path d="M52.3155 89.744L61.8449 79.8262L61.6043 64.0061L55.6364 58.1038L43.0267 70.1019L37.492 64.6351L34.6043 67.3443" stroke="#60A5FA" stroke-width="2" stroke-miterlimit="10"/>
<path d="M51.9786 47.8474L61.8449 48.0409L72.7219 37.349V23.8027" stroke="#60A5FA" stroke-width="2" stroke-miterlimit="10"/>
<path d="M51.4011 45.6219L61.6043 35.8976L61.8449 20.5129L55.3957 13.7881" stroke="#60A5FA" stroke-width="2" stroke-miterlimit="10"/>
<path d="M50.4866 93.7595C51.8422 93.7595 52.9412 92.6549 52.9412 91.2922C52.9412 89.9295 51.8422 88.8248 50.4866 88.8248C49.131 88.8248 48.0321 89.9295 48.0321 91.2922C48.0321 92.6549 49.131 93.7595 50.4866 93.7595Z" fill="#60A5FA" stroke="#60A5FA" stroke-miterlimit="10"/>
<path d="M72.7219 80.1649C74.0776 80.1649 75.1765 79.0602 75.1765 77.6975C75.1765 76.3348 74.0776 75.2302 72.7219 75.2302C71.3663 75.2302 70.2674 76.3348 70.2674 77.6975C70.2674 79.0602 71.3663 80.1649 72.7219 80.1649Z" fill="#60A5FA" stroke="#60A5FA" stroke-miterlimit="10"/>
<path d="M72.7219 23.7544C74.0776 23.7544 75.1765 22.6497 75.1765 21.287C75.1765 19.9243 74.0776 18.8196 72.7219 18.8196C71.3663 18.8196 70.2674 19.9243 70.2674 21.287C70.2674 22.6497 71.3663 23.7544 72.7219 23.7544Z" fill="#60A5FA" stroke="#60A5FA" stroke-miterlimit="10"/>
<path d="M54.0963 14.7074C55.4519 14.7074 56.5508 13.6027 56.5508 12.24C56.5508 10.8773 55.4519 9.77264 54.0963 9.77264C52.7407 9.77264 51.6417 10.8773 51.6417 12.24C51.6417 13.6027 52.7407 14.7074 54.0963 14.7074Z" fill="#60A5FA" stroke="#60A5FA" stroke-miterlimit="10"/>
<path d="M34.4599 58.1038L28.4439 64.0061L28.2513 79.8262L37.7326 89.744" stroke="#60A5FA" stroke-width="2" stroke-miterlimit="10"/>
<path d="M39.5615 93.7595C40.9171 93.7595 42.0161 92.6549 42.0161 91.2922C42.0161 89.9295 40.9171 88.8248 39.5615 88.8248C38.2059 88.8248 37.107 89.9295 37.107 91.2922C37.107 92.6549 38.2059 93.7595 39.5615 93.7595Z" fill="#60A5FA" stroke="#60A5FA" stroke-miterlimit="10"/>
<path d="M38.8396 52.2015H27.6257L17.0856 62.6999V75.4237" stroke="#60A5FA" stroke-width="2" stroke-miterlimit="10"/>
<path d="M17.0856 80.31C18.4412 80.31 19.5401 79.2053 19.5401 77.8427C19.5401 76.48 18.4412 75.3753 17.0856 75.3753C15.7299 75.3753 14.631 76.48 14.631 77.8427C14.631 79.2053 15.7299 80.31 17.0856 80.31Z" fill="#60A5FA" stroke="#60A5FA" stroke-miterlimit="10"/>
<path d="M38.0695 47.8474L28.1551 48.0409L17.2781 37.349V23.8027" stroke="#60A5FA" stroke-width="2" stroke-miterlimit="10"/>
<path d="M17.2781 23.7544C18.6337 23.7544 19.7326 22.6497 19.7326 21.287C19.7326 19.9243 18.6337 18.8196 17.2781 18.8196C15.9225 18.8196 14.8235 19.9243 14.8235 21.287C14.8235 22.6497 15.9225 23.7544 17.2781 23.7544Z" fill="#60A5FA" stroke="#60A5FA" stroke-miterlimit="10"/>
<path d="M48.2727 41.8483L49.7166 42.4288C50.0054 41.7031 49.7166 40.8807 49.0428 40.4936C48.2727 40.0582 47.3102 40.3001 46.877 41.0742L48.2727 41.8483Z" fill="#60A5FA" stroke="#60A5FA" stroke-miterlimit="10"/>
<path d="M41.9679 41.8483L43.3155 41.0742C42.9305 40.3969 42.0642 40.1066 41.3422 40.3969C40.5241 40.7355 40.139 41.6547 40.4759 42.4772L41.9679 41.8483Z" fill="#60A5FA" stroke="#60A5FA" stroke-miterlimit="10"/>
<path d="M47.1942 47.3359L45.2885 45.4202L43.1105 47.6096L45.0162 49.5253L47.1942 47.3359Z" stroke="#60A5FA" stroke-width="0.5" stroke-miterlimit="10"/>
<path d="M46.4835 47.86L46.5175 47.8258L45.6667 46.9706L45.6327 47.0048L46.4835 47.86Z" fill="#C33825" stroke="#60A5FA" stroke-width="0.25" stroke-miterlimit="10"/>
<path d="M45.6067 47.9032L45.5726 47.9374L45.981 48.3479L46.015 48.3137L45.6067 47.9032Z" fill="#C33825" stroke="#60A5FA" stroke-width="0.25" stroke-miterlimit="10"/>
<path d="M48.84 42.8116L45.6751 45.993L48.84 42.8116Z" stroke="#60A5FA" stroke-width="0.25" stroke-miterlimit="10"/>
<path d="M48.9964 43.1603L45.9335 46.2391L48.9964 43.1603Z" stroke="#60A5FA" stroke-width="0.25" stroke-miterlimit="10"/>
<path d="M42.3048 42.2837L42.3529 44.2673L44.1818 46.4443" stroke="#60A5FA" stroke-width="0.25" stroke-miterlimit="10"/>
<path d="M43.3967 48.095L39.3129 52.2001L43.3967 48.095Z" stroke="#60A5FA" stroke-width="0.25" stroke-miterlimit="10"/>
<path d="M50.1294 52.4815L45.7733 48.1027L50.1294 52.4815Z" stroke="#60A5FA" stroke-width="0.25" stroke-miterlimit="10"/>
<path d="M39.8984 52.6369L42.7861 56.0235L39.1765 59.4584L48.5615 70.1987V73.5852" stroke="#60A5FA" stroke-width="0.25" stroke-miterlimit="10"/>
<path d="M47.1658 58.636L47.647 58.2005L46.0588 56.604L50.0535 52.6369L49.9091 56.0718L51.2085 57.4265" stroke="#60A5FA" stroke-width="0.25" stroke-miterlimit="10"/>
<path d="M56.4595 64.3814L54.4176 62.3289L49.6191 67.1524L51.661 69.2049L56.4595 64.3814Z" stroke="#60A5FA" stroke-width="0.5" stroke-miterlimit="10"/>
<path d="M54.6781 63.5246C54.7578 63.5232 54.8214 63.4572 54.8201 63.377C54.8187 63.2969 54.753 63.233 54.6733 63.2343C54.5935 63.2357 54.53 63.3017 54.5313 63.3819C54.5327 63.462 54.5984 63.5259 54.6781 63.5246Z" fill="#60A5FA"/>
<path d="M54.2449 63.9122C54.3246 63.9109 54.3882 63.8448 54.3868 63.7647C54.3855 63.6845 54.3198 63.6206 54.24 63.622C54.1603 63.6233 54.0968 63.6894 54.0981 63.7695C54.0994 63.8497 54.1651 63.9136 54.2449 63.9122Z" fill="#60A5FA"/>
<path d="M53.812 64.2992C53.8918 64.2979 53.9553 64.2318 53.954 64.1517C53.9527 64.0715 53.8869 64.0076 53.8072 64.009C53.7275 64.0103 53.6639 64.0764 53.6653 64.1565C53.6666 64.2367 53.7323 64.3006 53.812 64.2992Z" fill="#60A5FA"/>
<path d="M53.4753 64.6857C53.555 64.6844 53.6185 64.6183 53.6172 64.5381C53.6159 64.458 53.5502 64.3941 53.4704 64.3955C53.3907 64.3968 53.3271 64.4629 53.3285 64.543C53.3298 64.6232 53.3955 64.687 53.4753 64.6857Z" fill="#60A5FA"/>
<path d="M53.0418 65.0243C53.1215 65.0229 53.1851 64.9569 53.1837 64.8767C53.1824 64.7966 53.1167 64.7327 53.0369 64.734C52.9572 64.7354 52.8937 64.8014 52.895 64.8816C52.8963 64.9617 52.962 65.0256 53.0418 65.0243Z" fill="#60A5FA"/>
<path d="M52.6569 65.4118C52.7366 65.4105 52.8002 65.3444 52.7988 65.2643C52.7975 65.1841 52.7318 65.1203 52.652 65.1216C52.5723 65.1229 52.5087 65.189 52.5101 65.2691C52.5114 65.3493 52.5771 65.4132 52.6569 65.4118Z" fill="#60A5FA"/>
<path d="M52.2239 65.7985C52.3036 65.7972 52.3672 65.7311 52.3658 65.6509C52.3645 65.5708 52.2988 65.5069 52.219 65.5083C52.1393 65.5096 52.0758 65.5757 52.0771 65.6558C52.0784 65.736 52.1441 65.7998 52.2239 65.7985Z" fill="#60A5FA"/>
<path d="M51.8388 66.1856C51.9186 66.1843 51.9821 66.1182 51.9808 66.0381C51.9795 65.9579 51.9137 65.8941 51.834 65.8954C51.7543 65.8967 51.6907 65.9628 51.6921 66.043C51.6934 66.1231 51.7591 66.187 51.8388 66.1856Z" fill="#60A5FA"/>
<path d="M51.2131 66.3791C51.2928 66.3778 51.3564 66.3117 51.355 66.2316C51.3537 66.1514 51.288 66.0875 51.2082 66.0889C51.1285 66.0902 51.065 66.1563 51.0663 66.2364C51.0676 66.3166 51.1333 66.3805 51.2131 66.3791Z" fill="#60A5FA"/>
<path d="M55.0631 63.8634C55.1429 63.862 55.2064 63.796 55.2051 63.7158C55.2038 63.6357 55.138 63.5718 55.0583 63.5731C54.9786 63.5745 54.915 63.6405 54.9164 63.7207C54.9177 63.8008 54.9834 63.8647 55.0631 63.8634Z" fill="#60A5FA"/>
<path d="M54.6786 64.2989C54.7584 64.2975 54.8219 64.2315 54.8206 64.1513C54.8192 64.0712 54.7535 64.0073 54.6738 64.0086C54.5941 64.01 54.5305 64.076 54.5318 64.1562C54.5332 64.2363 54.5989 64.3002 54.6786 64.2989Z" fill="#60A5FA"/>
<path d="M54.2454 64.6374C54.3252 64.636 54.3887 64.57 54.3874 64.4898C54.386 64.4097 54.3203 64.3458 54.2406 64.3471C54.1609 64.3485 54.0973 64.4145 54.0986 64.4947C54.1 64.5748 54.1657 64.6387 54.2454 64.6374Z" fill="#60A5FA"/>
<path d="M53.8602 65.0243C53.94 65.023 54.0035 64.9569 54.0022 64.8768C54.0009 64.7966 53.9351 64.7327 53.8554 64.7341C53.7757 64.7354 53.7121 64.8015 53.7134 64.8816C53.7148 64.9618 53.7805 65.0257 53.8602 65.0243Z" fill="#60A5FA"/>
<path d="M53.4271 65.3633C53.5069 65.3619 53.5704 65.2959 53.5691 65.2157C53.5677 65.1356 53.502 65.0717 53.4223 65.073C53.3426 65.0744 53.279 65.1404 53.2803 65.2206C53.2817 65.3007 53.3474 65.3646 53.4271 65.3633Z" fill="#60A5FA"/>
<path d="M53.0423 65.7986C53.1221 65.7973 53.1856 65.7312 53.1843 65.6511C53.1829 65.5709 53.1172 65.507 53.0375 65.5084C52.9578 65.5097 52.8942 65.5758 52.8955 65.6559C52.8969 65.7361 52.9626 65.8 53.0423 65.7986Z" fill="#60A5FA"/>
<path d="M52.6089 66.1375C52.6886 66.1362 52.7521 66.0701 52.7508 65.99C52.7495 65.9098 52.6838 65.846 52.604 65.8473C52.5243 65.8486 52.4607 65.9147 52.4621 65.9948C52.4634 66.075 52.5291 66.1389 52.6089 66.1375Z" fill="#60A5FA"/>
<path d="M52.2239 66.5245C52.3036 66.5232 52.3671 66.4571 52.3658 66.377C52.3645 66.2968 52.2988 66.2329 52.219 66.2343C52.1393 66.2356 52.0757 66.3017 52.0771 66.3818C52.0784 66.462 52.1441 66.5259 52.2239 66.5245Z" fill="#60A5FA"/>
<path d="M51.7906 66.8633C51.8703 66.8619 51.9338 66.7958 51.9325 66.7157C51.9312 66.6355 51.8655 66.5717 51.7857 66.573C51.706 66.5744 51.6424 66.6404 51.6438 66.7206C51.6451 66.8007 51.7108 66.8646 51.7906 66.8633Z" fill="#60A5FA"/>
<path d="M51.4054 67.2501C51.4851 67.2488 51.5487 67.1827 51.5473 67.1025C51.546 67.0224 51.4803 66.9585 51.4005 66.9599C51.3208 66.9612 51.2572 67.0273 51.2586 67.1074C51.2599 67.1876 51.3256 67.2514 51.4054 67.2501Z" fill="#60A5FA"/>
<path d="M50.9727 67.6376C51.0524 67.6363 51.1159 67.5702 51.1146 67.4901C51.1133 67.4099 51.0476 67.346 50.9678 67.3474C50.8881 67.3487 50.8245 67.4148 50.8259 67.4949C50.8272 67.5751 50.8929 67.639 50.9727 67.6376Z" fill="#60A5FA"/>
<path d="M55.4488 64.2503C55.5285 64.2489 55.5921 64.1829 55.5907 64.1027C55.5894 64.0226 55.5237 63.9587 55.4439 63.96C55.3642 63.9614 55.3006 64.0274 55.302 64.1076C55.3033 64.1877 55.369 64.2516 55.4488 64.2503Z" fill="#60A5FA"/>
<path d="M55.0631 64.5888C55.1428 64.5875 55.2063 64.5214 55.205 64.4413C55.2037 64.3611 55.138 64.2973 55.0582 64.2986C54.9785 64.2999 54.9149 64.366 54.9163 64.4462C54.9176 64.5263 54.9833 64.5902 55.0631 64.5888Z" fill="#60A5FA"/>
<path d="M54.6303 64.9762C54.71 64.9749 54.7736 64.9088 54.7723 64.8287C54.7709 64.7485 54.7052 64.6846 54.6255 64.686C54.5457 64.6873 54.4822 64.7534 54.4835 64.8335C54.4849 64.9137 54.5506 64.9776 54.6303 64.9762Z" fill="#60A5FA"/>
<path d="M54.2452 65.3633C54.325 65.362 54.3885 65.2959 54.3872 65.2158C54.3859 65.1356 54.3201 65.0717 54.2404 65.0731C54.1607 65.0744 54.0971 65.1405 54.0985 65.2206C54.0998 65.3008 54.1655 65.3647 54.2452 65.3633Z" fill="#60A5FA"/>
<path d="M53.8119 65.7023C53.8917 65.7009 53.9552 65.6348 53.9539 65.5547C53.9525 65.4745 53.8868 65.4107 53.8071 65.412C53.7274 65.4133 53.6638 65.4794 53.6651 65.5596C53.6665 65.6397 53.7322 65.7036 53.8119 65.7023Z" fill="#60A5FA"/>
<path d="M53.4273 66.1375C53.507 66.1362 53.5706 66.0701 53.5693 65.99C53.5679 65.9098 53.5022 65.846 53.4225 65.8473C53.3427 65.8486 53.2792 65.9147 53.2805 65.9948C53.2819 66.075 53.3476 66.1389 53.4273 66.1375Z" fill="#60A5FA"/>
<path d="M52.9937 66.4765C53.0734 66.4751 53.137 66.4091 53.1357 66.3289C53.1343 66.2488 53.0686 66.1849 52.9889 66.1862C52.9091 66.1876 52.8456 66.2536 52.8469 66.3338C52.8483 66.4139 52.914 66.4778 52.9937 66.4765Z" fill="#60A5FA"/>
<path d="M52.609 66.8634C52.6887 66.8621 52.7523 66.796 52.7509 66.7159C52.7496 66.6357 52.6839 66.5719 52.6041 66.5732C52.5244 66.5745 52.4609 66.6406 52.4622 66.7207C52.4635 66.8009 52.5292 66.8648 52.609 66.8634Z" fill="#60A5FA"/>
<path d="M52.1757 67.2022C52.2555 67.2008 52.319 67.1348 52.3177 67.0546C52.3163 66.9745 52.2506 66.9106 52.1709 66.9119C52.0912 66.9133 52.0276 66.9793 52.0289 67.0595C52.0303 67.1396 52.096 67.2035 52.1757 67.2022Z" fill="#60A5FA"/>
<path d="M51.7903 67.5891C51.87 67.5878 51.9336 67.5217 51.9323 67.4416C51.9309 67.3614 51.8652 67.2976 51.7855 67.2989C51.7057 67.3002 51.6422 67.3663 51.6435 67.4464C51.6449 67.5266 51.7106 67.5905 51.7903 67.5891Z" fill="#60A5FA"/>
<path d="M51.4058 67.9756C51.4856 67.9742 51.5491 67.9082 51.5478 67.828C51.5464 67.7479 51.4807 67.684 51.401 67.6853C51.3213 67.6867 51.2577 67.7527 51.259 67.8329C51.2604 67.913 51.3261 67.9769 51.4058 67.9756Z" fill="#60A5FA"/>
<path d="M55.4488 64.9764C55.5285 64.975 55.5921 64.909 55.5907 64.8288C55.5894 64.7487 55.5237 64.6848 55.444 64.6861C55.3642 64.6875 55.3007 64.7535 55.302 64.8337C55.3033 64.9138 55.3691 64.9777 55.4488 64.9764Z" fill="#60A5FA"/>
<path d="M55.0155 65.315C55.0952 65.3137 55.1588 65.2476 55.1575 65.1675C55.1561 65.0873 55.0904 65.0235 55.0107 65.0248C54.9309 65.0261 54.8674 65.0922 54.8687 65.1723C54.8701 65.2525 54.9358 65.3164 55.0155 65.315Z" fill="#60A5FA"/>
<path d="M54.6304 65.7022C54.7101 65.7008 54.7737 65.6348 54.7723 65.5546C54.771 65.4745 54.7053 65.4106 54.6255 65.4119C54.5458 65.4133 54.4823 65.4793 54.4836 65.5595C54.4849 65.6396 54.5506 65.7035 54.6304 65.7022Z" fill="#60A5FA"/>
<path d="M54.1968 66.0409C54.2766 66.0396 54.3401 65.9735 54.3388 65.8934C54.3375 65.8132 54.2717 65.7493 54.192 65.7507C54.1123 65.752 54.0487 65.8181 54.0501 65.8982C54.0514 65.9784 54.1171 66.0423 54.1968 66.0409Z" fill="#60A5FA"/>
<path d="M53.8598 66.4273C53.9395 66.426 54.0031 66.3599 54.0018 66.2798C54.0004 66.1996 53.9347 66.1358 53.855 66.1371C53.7752 66.1384 53.7117 66.2045 53.713 66.2847C53.7144 66.3648 53.7801 66.4287 53.8598 66.4273Z" fill="#60A5FA"/>
<path d="M53.379 66.815C53.4587 66.8137 53.5223 66.7476 53.5209 66.6675C53.5196 66.5873 53.4539 66.5235 53.3741 66.5248C53.2944 66.5261 53.2308 66.5922 53.2322 66.6723C53.2335 66.7525 53.2992 66.8164 53.379 66.815Z" fill="#60A5FA"/>
<path d="M53.042 67.2016C53.1217 67.2002 53.1853 67.1342 53.1839 67.054C53.1826 66.9739 53.1169 66.91 53.0372 66.9113C52.9574 66.9127 52.8939 66.9787 52.8952 67.0589C52.8965 67.139 52.9623 67.2029 53.042 67.2016Z" fill="#60A5FA"/>
<path d="M52.6087 67.5402C52.6885 67.5389 52.752 67.4728 52.7507 67.3926C52.7494 67.3125 52.6836 67.2486 52.6039 67.25C52.5242 67.2513 52.4606 67.3174 52.462 67.3975C52.4633 67.4777 52.529 67.5415 52.6087 67.5402Z" fill="#60A5FA"/>
<path d="M52.2235 67.9273C52.3032 67.926 52.3668 67.8599 52.3654 67.7798C52.3641 67.6996 52.2984 67.6358 52.2187 67.6371C52.1389 67.6384 52.0754 67.7045 52.0767 67.7847C52.078 67.8648 52.1438 67.9287 52.2235 67.9273Z" fill="#60A5FA"/>
<path d="M51.7906 68.3146C51.8704 68.3133 51.9339 68.2472 51.9326 68.1671C51.9312 68.0869 51.8655 68.023 51.7858 68.0244C51.7061 68.0257 51.6425 68.0918 51.6438 68.1719C51.6452 68.2521 51.7109 68.316 51.7906 68.3146Z" fill="#60A5FA"/>
<path d="M40.2353 73.0531V64.5867L44.3262 61.0066" stroke="#60A5FA" stroke-width="2" stroke-miterlimit="10"/>
<path d="M45.0481 61.3452C45.5 61.3452 45.8663 60.977 45.8663 60.5228C45.8663 60.0685 45.5 59.7003 45.0481 59.7003C44.5963 59.7003 44.2299 60.0685 44.2299 60.5228C44.2299 60.977 44.5963 61.3452 45.0481 61.3452Z" stroke="#60A5FA" stroke-miterlimit="10"/>
<path d="M39.4652 52.5885C41.1497 51.6693 45.4813 49.8309 49.4759 51.8628C49.861 52.0564 50.2941 52.2499 50.7273 52.5402" stroke="#60A5FA" stroke-width="2" stroke-miterlimit="10"/>
<path d="M38.262 45.6219L28.0107 35.8976L27.7219 20.5129L34.2674 13.7881" stroke="#60A5FA" stroke-width="2" stroke-miterlimit="10"/>
<path d="M35.5187 14.7074C36.8743 14.7074 37.9733 13.6027 37.9733 12.24C37.9733 10.8773 36.8743 9.77264 35.5187 9.77264C34.1631 9.77264 33.0642 10.8773 33.0642 12.24C33.0642 13.6027 34.1631 14.7074 35.5187 14.7074Z" fill="#60A5FA" stroke="#60A5FA" stroke-miterlimit="10"/>
<path d="M49.1872 73.7304C49.2353 73.9239 49.139 74.1174 48.8984 74.1658C48.1765 74.3593 47.4064 74.3109 46.6364 74.4077C45.9144 74.5045 45.1925 74.5528 44.4225 74.5045C43.7487 74.5045 43.0267 74.4561 42.3529 74.3593C41.8717 74.2626 41.4385 74.1658 41.1979 73.682H40.139C40.1872 74.2626 42.1123 76.0526 45.0963 76.0526C48.0321 76.0526 50.0535 74.2626 50.0053 73.7304H49.1872Z" fill="#60A5FA" stroke="#60A5FA" stroke-miterlimit="10"/>
<path d="M104.477 43.2731H99.3476V45.507H104.477V43.2731Z" fill="#60A5FA"/>
<path d="M99.3476 60.6635H91.5023V62.8974H99.3476V60.6635Z" fill="#60A5FA"/>
<path d="M100.381 53.8241H101.529L103.016 55.2848V57.6218L105.056 60.5689L105.528 60.1049V54.4857L102.66 51.6933H99.3476V52.3377L100.381 53.8241Z" fill="#60A5FA"/>
<path d="M101.529 60.6634H99.3476V62.906H102.66L103.23 62.3475L101.841 60.3541L101.529 60.6634Z" fill="#60A5FA"/>
<path d="M94.7883 45.5156H99.3476V43.2731H93.6573L93.3011 43.6168L94.6903 45.6101L94.7883 45.5156Z" fill="#60A5FA"/>
<path d="M95.8569 51.6933H95.848L97.3173 53.8241H97.3351L95.8569 51.6933Z" fill="#60A5FA"/>
<path d="M94.7883 51.6933L93.3011 50.2241L93.2833 47.9901L91.4845 45.3953L90.7899 46.0741V51.0489L93.6573 53.8241H97.3173L95.848 51.6933H94.7883Z" fill="#60A5FA"/>
<path d="M99.3476 51.6933H98.9024L99.3476 52.3377V51.6933Z" fill="#60A5FA"/>
<path d="M115.546 47.5433H113.035V62.906H115.546V47.5433Z" fill="#60A5FA"/>
<path d="M113.008 43.2731H106.988V45.507H113.008V43.2731Z" fill="#60A5FA"/>
<path d="M121.592 43.2731H115.573V45.507H121.592V43.2731Z" fill="#60A5FA"/>
<path d="M135.484 55.1301L138.352 52.3291V46.0741L137.541 45.275L135.84 46.9161V51.5043L134.353 52.9735H126.864V45.4297H134.229L135.965 43.7542L135.484 43.2731H124.353V62.906H126.864V55.1301H132.661L136.286 62.906H139.073L135.395 55.1301H135.484Z" fill="#60A5FA"/>
<path d="M156.847 45.0345L155.414 47.1395V59.2801L153.891 60.7494H146.553L146.295 60.5002L144.95 62.4592L145.422 62.906H155.022L157.925 60.105V46.0741L156.847 45.0345Z" fill="#60A5FA"/>
<path d="M143.517 61.1446L144.95 59.0395V46.8989L146.473 45.4297H153.82L154.078 45.6789L155.414 43.7199L154.951 43.2731H145.342L142.439 46.0741V60.1049L143.517 61.1446Z" fill="#60A5FA"/>
<path d="M169.19 60.5861H168.584L162.698 43.2731H160.053L166.954 62.906H170.81L174.693 51.8651L172.627 50.456L169.19 60.5861Z" fill="#60A5FA"/>
<path d="M177.712 43.2731H175.067L173.464 47.9815L175.557 49.4078L177.712 43.2731Z" fill="#60A5FA"/>
<path d="M180.472 62.906H193.892V60.6634H182.992V58.0515H180.472V62.906Z" fill="#60A5FA"/>
<path d="M180.472 56.4275H182.992V53.6867H192.734V51.4785H182.992V49.3992H180.472V56.4275Z" fill="#60A5FA"/>
<path d="M193.892 45.5156V43.2731H180.472V47.7667H182.992V45.5156H193.892Z" fill="#60A5FA"/>
<path d="M208.853 55.1301L211.729 52.3291V46.0741L210.91 45.275L209.209 46.9161V51.5043L207.722 52.9735H200.241V45.4297H207.597L209.342 43.7542L208.853 43.2731H197.73V62.906H200.241V55.1301H206.039L209.654 62.906H212.441L208.772 55.1301H208.853Z" fill="#60A5FA"/>
</svg>
